<svg xmlns="http://www.w3.org/2000/svg" width="487.725" height="609.655" viewBox="0 0 487.725 609.655">
  <defs>
    <style>
      .cls-1, .cls-2 {
        fill: #fff;
      }

      .cls-2 {
        fill-rule: evenodd;
      }
    </style>
  </defs>
  <g id="notepad-white" transform="translate(-60.965 0)">
    <g id="Page-1_8_">
      <g id="_x30_09---Note">
        <path id="Shape_10_" class="cls-1" d="M111.77,609.655H497.885a50.866,50.866,0,0,0,50.805-50.8V132.092a50.866,50.866,0,0,0-50.8-50.805H254.023V71.126a71.126,71.126,0,0,0-142.253,0V81.287a50.866,50.866,0,0,0-50.805,50.805V558.85a50.866,50.866,0,0,0,50.805,50.8ZM132.092,71.126a50.805,50.805,0,1,1,101.61,0V81.287H213.38V71.126a30.483,30.483,0,1,0-60.966,0V81.287H132.092Zm0,30.483h20.322v50.8a10.161,10.161,0,0,0,20.322,0V101.609h20.322v60.965a30.483,30.483,0,1,1-60.966,0Zm40.643-20.322V71.126a10.161,10.161,0,1,1,20.322,0V81.287ZM81.287,132.092a30.483,30.483,0,0,1,30.483-30.483v60.965a50.805,50.805,0,0,0,101.61,0V101.609H497.885a30.483,30.483,0,0,1,30.483,30.483V558.85a30.483,30.483,0,0,1-30.483,30.483H111.77A30.483,30.483,0,0,1,81.287,558.85Z"/>
        <g id="Group_1" data-name="Group 1">
          <path id="Path_78_" class="cls-2" d="M497.885,162.575h10.161a10.161,10.161,0,1,0,0-20.322H497.885a10.161,10.161,0,1,0,0,20.322Z"/>
          <path id="Path_77_" class="cls-2" d="M447.08,162.575h10.161a10.161,10.161,0,1,0,0-20.322H447.08a10.161,10.161,0,1,0,0,20.322Z"/>
          <path id="Path_76_" class="cls-2" d="M396.275,162.575h10.161a10.161,10.161,0,1,0,0-20.322H396.275a10.161,10.161,0,1,0,0,20.322Z"/>
          <path id="Path_75_" class="cls-2" d="M345.471,162.575h10.161a10.161,10.161,0,1,0,0-20.322H345.471a10.161,10.161,0,1,0,0,20.322Z"/>
          <path id="Path_74_" class="cls-2" d="M294.666,162.575h10.161a10.161,10.161,0,1,0,0-20.322H294.666a10.161,10.161,0,1,0,0,20.322Z"/>
          <path id="Path_73_" class="cls-2" d="M243.862,162.575h10.161a10.161,10.161,0,0,0,0-20.322H243.862a10.161,10.161,0,0,0,0,20.322Z"/>
          <path id="Path_72_" class="cls-2" d="M152.414,284.505h60.965a10.161,10.161,0,0,0,0-20.322H152.414a10.161,10.161,0,0,0,0,20.322Z"/>
          <path id="Path_71_" class="cls-2" d="M457.241,264.184H254.023a10.161,10.161,0,0,0,0,20.322H457.241a10.161,10.161,0,0,0,0-20.322Z"/>
          <path id="Path_70_" class="cls-2" d="M152.414,345.471H457.241a10.161,10.161,0,0,0,0-20.322H152.414a10.161,10.161,0,0,0,0,20.322Z"/>
          <path id="Path_69_" class="cls-2" d="M457.241,386.115H396.276a10.161,10.161,0,0,0,0,20.322h60.965a10.161,10.161,0,0,0,0-20.322Z"/>
          <path id="Path_68_" class="cls-2" d="M152.414,406.436H355.632a10.161,10.161,0,0,0,0-20.322H152.414a10.161,10.161,0,0,0,0,20.322Z"/>
          <path id="Path_67_" class="cls-2" d="M152.414,467.4H457.241a10.161,10.161,0,0,0,0-20.322H152.414a10.161,10.161,0,0,0,0,20.322Z"/>
        </g>
      </g>
    </g>
  </g>
</svg>
