<svg id="Capa_1" enable-background="new 0 0 609.655 609.655" height="512" viewBox="0 0 609.655 609.655" width="512" xmlns="http://www.w3.org/2000/svg"><g><g id="Page-1_8_"><g id="_x30_09---Note"><path id="Shape_10_" d="m111.77 609.655h386.115c28.045-.034 50.771-22.76 50.805-50.805v-426.758c-.034-28.045-22.76-50.771-50.805-50.805h-243.862v-10.161c0-39.282-31.845-71.126-71.127-71.126s-71.126 31.844-71.126 71.126v10.161c-28.045.034-50.771 22.76-50.805 50.805v426.758c.034 28.045 22.76 50.771 50.805 50.805zm20.322-538.529c0-28.059 22.746-50.805 50.805-50.805s50.805 22.746 50.805 50.805v10.161h-20.322v-10.161c0-16.835-13.648-30.483-30.483-30.483s-30.483 13.648-30.483 30.483v10.161h-20.322zm0 30.483h20.322v50.805c0 5.612 4.549 10.161 10.161 10.161s10.161-4.549 10.161-10.161v-50.805h20.322v60.965c0 16.835-13.648 30.483-30.483 30.483s-30.483-13.648-30.483-30.483zm40.643-20.322v-10.161c0-5.612 4.549-10.161 10.161-10.161s10.161 4.549 10.161 10.161v10.161zm-91.448 50.805c0-16.835 13.648-30.483 30.483-30.483v60.965c0 28.059 22.746 50.805 50.805 50.805s50.805-22.746 50.805-50.805v-60.965h284.505c16.835 0 30.483 13.648 30.483 30.483v426.758c0 16.835-13.648 30.483-30.483 30.483h-386.115c-16.835 0-30.483-13.648-30.483-30.483z"/><g clip-rule="evenodd" fill-rule="evenodd"><path id="Path_78_" d="m497.885 162.575h10.161c5.612 0 10.161-4.549 10.161-10.161s-4.549-10.161-10.161-10.161h-10.161c-5.612 0-10.161 4.549-10.161 10.161s4.549 10.161 10.161 10.161z"/><path id="Path_77_" d="m447.08 162.575h10.161c5.612 0 10.161-4.549 10.161-10.161s-4.549-10.161-10.161-10.161h-10.161c-5.612 0-10.161 4.549-10.161 10.161s4.549 10.161 10.161 10.161z"/><path id="Path_76_" d="m396.275 162.575h10.161c5.612 0 10.161-4.549 10.161-10.161s-4.549-10.161-10.161-10.161h-10.161c-5.612 0-10.161 4.549-10.161 10.161s4.55 10.161 10.161 10.161z"/><path id="Path_75_" d="m345.471 162.575h10.161c5.612 0 10.161-4.549 10.161-10.161s-4.549-10.161-10.161-10.161h-10.161c-5.612 0-10.161 4.549-10.161 10.161s4.549 10.161 10.161 10.161z"/><path id="Path_74_" d="m294.666 162.575h10.161c5.612 0 10.161-4.549 10.161-10.161s-4.549-10.161-10.161-10.161h-10.161c-5.612 0-10.161 4.549-10.161 10.161s4.55 10.161 10.161 10.161z"/><path id="Path_73_" d="m243.862 162.575h10.161c5.612 0 10.161-4.549 10.161-10.161s-4.549-10.161-10.161-10.161h-10.161c-5.612 0-10.161 4.549-10.161 10.161s4.549 10.161 10.161 10.161z"/><path id="Path_72_" d="m152.414 284.505h60.965c5.612 0 10.161-4.549 10.161-10.161s-4.549-10.161-10.161-10.161h-60.965c-5.612 0-10.161 4.549-10.161 10.161s4.549 10.161 10.161 10.161z"/><path id="Path_71_" d="m457.241 264.184h-203.218c-5.612 0-10.161 4.549-10.161 10.161s4.549 10.161 10.161 10.161h203.218c5.612 0 10.161-4.549 10.161-10.161s-4.549-10.161-10.161-10.161z"/><path id="Path_70_" d="m152.414 345.471h304.827c5.612 0 10.161-4.549 10.161-10.161s-4.549-10.161-10.161-10.161h-304.827c-5.612 0-10.161 4.549-10.161 10.161s4.549 10.161 10.161 10.161z"/><path id="Path_69_" d="m457.241 386.115h-60.965c-5.612 0-10.161 4.549-10.161 10.161s4.549 10.161 10.161 10.161h60.965c5.612 0 10.161-4.549 10.161-10.161s-4.549-10.161-10.161-10.161z"/><path id="Path_68_" d="m152.414 406.436h203.218c5.612 0 10.161-4.549 10.161-10.161s-4.549-10.161-10.161-10.161h-203.218c-5.612 0-10.161 4.549-10.161 10.161s4.549 10.161 10.161 10.161z"/><path id="Path_67_" d="m152.414 467.402h304.827c5.612 0 10.161-4.549 10.161-10.161s-4.549-10.161-10.161-10.161h-304.827c-5.612 0-10.161 4.549-10.161 10.161s4.549 10.161 10.161 10.161z"/></g></g></g></g></svg>