<svg id="statistics-white" xmlns="http://www.w3.org/2000/svg" width="477.867" height="477.867" viewBox="0 0 477.867 477.867">
  <defs>
    <style>
      .cls-1 {
        fill: #fff;
      }
    </style>
  </defs>
  <g id="Group_2" data-name="Group 2">
    <g id="Group_1" data-name="Group 1">
      <path id="Path_1" data-name="Path 1" class="cls-1" d="M119.467,187.733H17.067A17.067,17.067,0,0,0,0,204.8v256a17.067,17.067,0,0,0,17.067,17.067h102.4A17.067,17.067,0,0,0,136.534,460.8v-256A17.068,17.068,0,0,0,119.467,187.733Zm-17.067,256H34.133V221.867H102.4Z"/>
    </g>
  </g>
  <g id="Group_4" data-name="Group 4">
    <g id="Group_3" data-name="Group 3">
      <path id="Path_2" data-name="Path 2" class="cls-1" d="M290.133,0h-102.4a17.067,17.067,0,0,0-17.067,17.067V460.8a17.067,17.067,0,0,0,17.067,17.067h102.4A17.067,17.067,0,0,0,307.2,460.8V17.067A17.067,17.067,0,0,0,290.133,0ZM273.067,443.733H204.8V34.133h68.267v409.6Z"/>
    </g>
  </g>
  <g id="Group_6" data-name="Group 6">
    <g id="Group_5" data-name="Group 5">
      <path id="Path_3" data-name="Path 3" class="cls-1" d="M460.8,136.533H358.4A17.067,17.067,0,0,0,341.333,153.6V460.8A17.067,17.067,0,0,0,358.4,477.867H460.8A17.067,17.067,0,0,0,477.867,460.8V153.6A17.067,17.067,0,0,0,460.8,136.533Zm-17.067,307.2H375.466V170.667h68.267Z"/>
    </g>
  </g>
</svg>
